<?xml version="1.0" encoding="utf-8"?>
<!-- Generator: Adobe Illustrator 27.5.0, SVG Export Plug-In . SVG Version: 6.00 Build 0)  -->
<svg version="1.1" id="Capa_1" xmlns="http://www.w3.org/2000/svg" xmlns:xlink="http://www.w3.org/1999/xlink" x="0px" y="0px"
	 viewBox="0 0 32.4 32.4" style="enable-background:new 0 0 32.4 32.4;" xml:space="preserve">
<style type="text/css">
	.st0{fill:#862A80;}
	.st1{fill:#FBFDFF;}
	.st2{fill:#FCFDFF;}
	.st3{fill:#F7FAFF;}
</style>
<path class="st0" d="M28.1,17.3c0,0,0,0.1,0,0.1c0,0,0,0.1,0,0.1c0,0.1,0,0.2,0,0.4c0,0.1-0.1,0.3-0.1,0.4c0,0.2-0.1,0.4-0.1,0.6
	c-0.1,0.3-0.1,0.6-0.2,0.8c0,0.2-0.1,0.3-0.2,0.5c-0.1,0.2-0.2,0.5-0.3,0.7c0,0.1-0.1,0.2-0.1,0.3c0,0,0,0,0,0
	c-0.1,0.2-0.1,0.3-0.2,0.5c-0.5,0.9-1,1.7-1.7,2.5c0,0,0,0,0,0.1c0,0,0,0,0,0c-0.3,0.4-0.7,0.7-1.1,1c0,0,0,0,0,0
	c-0.5,0.5-1.1,0.9-1.7,1.2c-0.7,0.4-1.5,0.8-2.3,1.1c-0.5,0.2-1,0.3-1.5,0.4c-0.1,0-0.2,0-0.3,0.1c0-0.1,0-8,0-8.4
	c0.5,0,0.9,0,1.4,0c0.5,0,0.9,0,1.4,0c0.2-1.2,0.4-2.3,0.5-3.5c-1.1,0-2.2,0-3.3,0c0,0,0-0.1,0-0.1c0-0.8,0-1.6,0-2.3
	c0-0.3,0.1-0.7,0.3-1c0.2-0.4,0.6-0.6,1.1-0.7c0.2-0.1,0.5-0.1,0.7-0.1c0.4,0,0.9,0,1.3,0c0,0,0.1,0,0.1,0c0-0.3,0-0.7,0-1
	c0-0.3,0-0.7,0-1c0-0.3,0-0.6,0-1c-0.1,0-0.3,0-0.4-0.1c-0.1,0-0.2,0-0.3,0c-0.2,0-0.4-0.1-0.5-0.1C19.8,9,19.4,9,19,9
	c-0.3,0-0.6,0-0.9,0c-0.6,0.1-1.2,0.2-1.8,0.5c-0.7,0.4-1.2,1-1.6,1.7c-0.2,0.4-0.3,0.8-0.4,1.2c-0.1,0.4-0.1,0.8-0.1,1.2
	c0,0.8,0,1.7,0,2.5c0,0,0,0.1,0,0.1c-1,0-2,0-3,0c0,1.2,0,2.3,0,3.5c1,0,2,0,3,0c0,2.8,0,5.6,0,8.3c-0.1,0-0.2,0-0.3,0
	c-0.2,0-0.4-0.1-0.6-0.1c-0.1,0-0.2,0-0.2-0.1c-0.2-0.1-0.4-0.1-0.5-0.2c-0.3-0.1-0.6-0.2-0.8-0.3c-0.1,0-0.3-0.1-0.4-0.2
	c0,0-0.1,0-0.1,0c0,0,0,0,0,0c-0.1-0.1-0.3-0.1-0.4-0.2c0,0,0,0,0,0c-0.1-0.1-0.2-0.1-0.3-0.2c0,0,0,0,0,0c0,0,0,0,0,0
	c-0.6-0.4-1.3-0.8-1.8-1.3c0,0,0,0-0.1,0c0,0,0,0,0,0c0-0.1-0.1-0.1-0.2-0.1c0,0,0,0,0,0c0-0.1-0.1-0.1-0.2-0.2C8,25,8,25,7.9,25
	c0,0,0,0,0-0.1c-0.1-0.1-0.3-0.3-0.4-0.4c0,0,0,0-0.1,0c-0.3-0.4-0.6-0.7-0.9-1.1C6.3,23,6,22.6,5.7,22.1c-0.1-0.2-0.2-0.4-0.3-0.6
	c-0.1-0.2-0.2-0.3-0.2-0.5C5.1,20.8,5,20.7,5,20.5c-0.1-0.2-0.2-0.4-0.2-0.7c-0.1-0.2-0.1-0.4-0.2-0.6c0-0.1,0-0.2-0.1-0.3
	c0-0.2-0.1-0.4-0.1-0.6c0-0.2,0-0.4-0.1-0.5c0-0.2,0-0.4-0.1-0.5c0,0,0-0.1,0-0.1c0-0.1,0-0.2,0-0.2c0-0.3,0-0.7,0-1
	c0-0.3,0-0.6,0.1-0.9c0-0.2,0-0.4,0.1-0.7c0.1-0.4,0.2-0.8,0.3-1.2c0.1-0.3,0.1-0.5,0.2-0.8c0.1-0.3,0.2-0.6,0.3-0.9
	c0-0.1,0.1-0.2,0.1-0.3c0-0.1,0.1-0.2,0.1-0.3c0.4-0.8,0.9-1.6,1.5-2.3C7.5,8,8,7.5,8.6,7c0.9-0.7,1.9-1.3,3-1.8
	c0.7-0.3,1.5-0.5,2.3-0.7c0.1,0,0.3,0,0.4-0.1c0.1,0,0.2,0,0.3,0c0.2,0,0.3,0,0.5-0.1c0.5,0,1.1-0.1,1.6,0c0,0,0.1,0,0.1,0
	c0.2,0,0.3,0,0.5,0c0.2,0,0.4,0.1,0.7,0.1c0.6,0.1,1.1,0.2,1.6,0.4c0.2,0.1,0.5,0.2,0.7,0.2c0.8,0.3,1.5,0.6,2.2,1.1
	c1.2,0.7,2.2,1.7,3.1,2.8c0,0,0,0,0,0c0.5,0.6,0.9,1.3,1.2,2c0.1,0.1,0.1,0.2,0.1,0.3c0,0,0,0,0,0c0.1,0.2,0.2,0.5,0.3,0.7
	c0.1,0.2,0.2,0.4,0.2,0.6c0.1,0.4,0.3,0.9,0.4,1.4c0.1,0.5,0.2,1,0.2,1.5c0,0.5,0,0.9,0,1.4c0,0,0,0.1,0,0.1c0,0.1,0,0.1,0,0.2
	C28.1,17.2,28.1,17.2,28.1,17.3z"/>
<path class="st1" d="M743.7,510.5c0.3-0.3,0.5-0.7,0.8-1C744.2,509.8,744,510.2,743.7,510.5z"/>
<path class="st1" d="M658.2,641c0.3-0.3,0.6-0.6,0.9-0.9C658.8,640.4,658.5,640.7,658.2,641z"/>
<path class="st2" d="M612.1,686.1c0.3-0.3,0.6-0.6,0.9-0.9C612.7,685.5,612.4,685.8,612.1,686.1z"/>
<path class="st3" d="M683.1-15.3c-0.3-0.3-0.6-0.6-0.8-1C682.5-16,682.8-15.7,683.1-15.3z"/>
<path class="st3" d="M743.5,84.5c-0.3-0.3-0.5-0.7-0.8-1C743,83.8,743.3,84.2,743.5,84.5z"/>
</svg>
