<?xml version="1.0" encoding="utf-8"?>
<!-- Generator: Adobe Illustrator 27.5.0, SVG Export Plug-In . SVG Version: 6.00 Build 0)  -->
<svg version="1.1" id="Capa_1" xmlns="http://www.w3.org/2000/svg" xmlns:xlink="http://www.w3.org/1999/xlink" x="0px" y="0px"
	 viewBox="0 0 32.4 32.4" style="enable-background:new 0 0 32.4 32.4;" xml:space="preserve">
<style type="text/css">
	.st0{fill:#862A80;}
</style>
<g>
	<path class="st0" d="M4.2,26.1c0-6.6,0-13.2,0-19.8V6.2c0.1-0.6,0.4-1,0.8-1.4c0.3-0.3,0.7-0.4,1.2-0.5c6.6,0,13.2,0,19.8,0h0.1
		c1.2,0.3,2,1.2,2,2.4c0,6.3,0,12.7,0,19c0,0.2,0,0.4-0.1,0.6c-0.3,1.1-1.2,1.8-2.4,1.8c-6.3,0-12.6,0-19,0c-0.1,0-0.1,0-0.2,0
		c-0.7,0-1.2-0.3-1.7-0.8C4.5,27,4.3,26.5,4.2,26.1z M24.6,24.6c0-0.1,0-0.1,0-0.2c0-2.2,0-4.4,0-6.6c0-1.5-0.6-2.6-1.8-3.4
		c-1.3-0.9-2.9-1.1-4.3-0.1c-0.4,0.3-0.7,0.6-1.1,0.9c0-0.4,0-0.8,0-1.3c-1.2,0-2.4,0-3.6,0c0,3.6,0,7.2,0,10.7c1.2,0,2.4,0,3.6,0
		c0-0.1,0-0.2,0-0.3c0-1.9,0-3.9,0-5.8c0-0.2,0-0.3,0-0.5c0.1-1,1.3-1.8,2.2-1.5c0.8,0.3,1.3,0.9,1.3,1.9c0,2,0,3.9,0,5.9
		c0,0.1,0,0.2,0,0.3C22.2,24.6,23.4,24.6,24.6,24.6z M11.4,24.6c0-3.6,0-7.2,0-10.7c-1.2,0-2.4,0-3.6,0c0,3.6,0,7.2,0,10.7
		C9,24.6,10.2,24.6,11.4,24.6z M11.7,9.6c0-1.2-1-2.2-2.2-2.2s-2.1,1-2.1,2.1c0,1.2,1,2.2,2.1,2.2C10.8,11.8,11.7,10.8,11.7,9.6z"/>
</g>
</svg>
