<?xml version="1.0" encoding="utf-8"?>
<!-- Generator: Adobe Illustrator 25.4.1, SVG Export Plug-In . SVG Version: 6.00 Build 0)  -->
<svg version="1.1" id="Capa_1" xmlns="http://www.w3.org/2000/svg" xmlns:xlink="http://www.w3.org/1999/xlink" x="0px" y="0px"
	 viewBox="0 0 24 24" style="enable-background:new 0 0 24 24;" xml:space="preserve">
<style type="text/css">
	.st0{fill:#333333;}
</style>
<path class="st0" d="M20.6,3.7H3.4c-1.1,0-2,0.9-2,2v12.6c0,1.1,0.9,2,2,2h17.2c1.1,0,2-0.9,2-2V5.7C22.6,4.6,21.7,3.7,20.6,3.7z
	 M20.6,5.7v1l-7.5,7.5c-0.6,0.6-1.6,0.6-2.2,0L3.4,6.7l0-1.1L20.6,5.7z M20.6,18.3l-17.2,0l0-8.7l6.1,6.1c0.7,0.7,1.6,1,2.5,1
	c0.9,0,1.8-0.3,2.5-1l6.1-6.1L20.6,18.3C20.6,18.3,20.6,18.3,20.6,18.3z"/>
</svg>
