<?xml version="1.0" encoding="utf-8"?>
<!-- Generator: Adobe Illustrator 25.4.1, SVG Export Plug-In . SVG Version: 6.00 Build 0)  -->
<svg version="1.1" id="Capa_1" xmlns="http://www.w3.org/2000/svg" xmlns:xlink="http://www.w3.org/1999/xlink" x="0px" y="0px"
	 viewBox="0 0 24 24" style="enable-background:new 0 0 24 24;" xml:space="preserve">
<style type="text/css">
	.st0{fill:#333333;}
</style>
<path class="st0" d="M12,1.3c2.2,0,4.2,0.6,5.9,1.8c0.8,0.5,1.4,1.1,2.1,1.8c1.3,1.4,2.1,2.9,2.4,4.8c0.2,1,0.3,1.9,0.2,2.9
	c0,1-0.2,1.8-0.5,2.6c-0.5,1.3-1.1,2.6-2.1,3.5c-1.1,1.3-2.6,2.4-4.3,3c-1,0.3-2.1,0.6-3,0.6c-1.6,0.2-3.2-0.2-4.8-0.8
	c-0.3-0.2-0.5-0.3-0.8-0.3c0,0-0.2,0-0.3,0c-1.4,0.3-2.9,0.8-4.2,1.1c-0.3,0.2-0.6,0.2-1,0.3c-0.2,0-0.2,0-0.2-0.2
	c0.3-1,0.5-2.1,0.8-3c0.2-0.6,0.3-1.3,0.5-2.1c0-0.2,0-0.2,0-0.3c-0.6-1.3-1.1-2.6-1.3-4.2c-0.2-1.9,0.2-3.8,1-5.6
	c0.5-1,1.1-1.8,1.8-2.6c1.8-1.8,4-2.9,6.4-3.2C11.3,1.3,11.7,1.3,12,1.3z M4.1,19.9L4.1,19.9c0.4,0,0.5-0.1,0.7-0.1
	c0.8-0.2,1.6-0.5,2.6-0.6c0.2,0,0.2,0,0.3,0c0.2,0.2,0.3,0.2,0.5,0.3c1.6,0.8,3.4,1.1,5.1,1c2.2-0.3,4-1.3,5.6-2.9
	c0.8-1,1.4-1.9,1.8-3.2c0.3-1.1,0.5-2.2,0.3-3.4c-0.2-1.1-0.5-2.2-1-3.2S18.9,6,18.1,5.4c-0.6-0.6-1.4-1.1-2.4-1.4
	c-1.3-0.6-2.7-0.8-4-0.6c-1.1,0-2.1,0.3-3,0.8c-1.1,0.5-2.2,1.3-3,2.2C5.1,7,4.6,7.8,4.3,8.6c-0.6,1.3-0.8,2.7-0.6,4.2
	c0.2,1.4,0.5,2.9,1.4,4c0.2,0.2,0.2,0.3,0.2,0.6C4.6,18,4.3,19,4.1,19.9C4.1,19.8,4.1,19.9,4.1,19.9z"/>
<path class="st0" d="M14.9,16.9c-0.3,0-0.6,0-1-0.2c-1-0.3-1.9-0.6-2.9-1.3c-0.6-0.5-1.3-1.1-1.9-1.8c-0.5-0.5-1-1.1-1.3-1.6
	c-0.5-0.6-0.8-1.3-1-2.1C6.6,8.9,7,8.1,7.6,7.5C7.8,7.3,7.9,7,8.2,7s0.6,0,1,0c0.2,0,0.3,0.2,0.3,0.3c0.2,0.2,0.2,0.5,0.3,0.6
	c0.2,0.5,0.5,1,0.6,1.4c0,0.2,0,0.3,0,0.5c-0.2,0.3-0.3,0.5-0.6,0.8c0,0,0,0-0.2,0.2s-0.2,0.3,0,0.5c0.2,0.3,0.5,0.6,0.6,1
	c0.6,1,1.6,1.6,2.7,2.1c0.2,0,0.2,0.2,0.3,0.2c0.2,0,0.3,0,0.5-0.2c0.3-0.3,0.5-0.6,0.8-1c0.2-0.3,0.3-0.3,0.6-0.2
	c0.3,0.2,0.5,0.2,0.6,0.3c0.5,0.2,1,0.5,1.4,0.6c0.2,0.2,0.3,0.3,0.3,0.5c0,0.5-0.2,1.1-0.5,1.4s-0.6,0.5-1.1,0.6
	C15.5,16.9,15.2,16.9,14.9,16.9z"/>
</svg>
